# xmcd
#
# Track frame offsets:
#	150
#	22136
#	43744
#	66563
#	89485
#	110462
#	134220
#	152221
#	174587
#	201645
#	225008
#	248053
#
# Disc length: 3619 seconds
#
# Revision: 1
# Processed by: cddbd v1.5.2PL0 Copyright (c) Steve Scherf et al.
# Submitted via: EZCDAudioConverter 8.0.2.1
#
DISCID=b10e210c
DTITLE=Thanh Tuyền - st. Trần Thiện Thanh
DYEAR=1994
DGENRE=country
TTITLE0=Thanh Tuyền - Tâm sự người lính trẻ
TTITLE1=Thanh Tuyền - Mùa xuân lá khô
TTITLE2=Thanh Tuyền - Tuyết trắng
TTITLE3=Thanh Tuyền - Tình đầu tình cuối
TTITLE4=Thanh Tuyền - Mùa đông của anh
TTITLE5=Thanh Tuyền - Anh không chết đâu anh
TTITLE6=Thanh Tuyền - Phút giao mùa
TTITLE7=Thanh Tuyền - Tình thiên thu
TTITLE8=Thanh Tuyền - Một đời yêu anh
TTITLE9=Thanh Tuyền - Anh về với em
TTITLE10=Thanh Tuyền, Trần Thiện Thanh - Chiều trên phá Tam Giang
TTITLE11=Thanh Tuyền - Tạ từ trong đêm
EXTD=
EXTT0=
EXTT1=
EXTT2=
EXTT3=
EXTT4=
EXTT5=
EXTT6=
EXTT7=
EXTT8=
EXTT9=
EXTT10=
EXTT11=
PLAYORDER=
